<?xml version="1.0" encoding="UTF-8" standalone="no"?>
<!DOCTYPE svg PUBLIC "-//W3C//DTD SVG 1.1//EN" "http://www.w3.org/Graphics/SVG/1.1/DTD/svg11.dtd">
<svg width="100%" height="100%" viewBox="0 0 176 56" version="1.1" xmlns="http://www.w3.org/2000/svg" xmlns:xlink="http://www.w3.org/1999/xlink" xml:space="preserve" xmlns:serif="http://www.serif.com/" style="fill-rule:evenodd;clip-rule:evenodd;stroke-linejoin:round;stroke-miterlimit:2;">
    <g transform="matrix(1.19728,0,0,1.33333,-3.59184,-4)">
        <path d="M150,7.108C150,4.841 147.95,3 145.425,3L7.575,3C5.05,3 3,4.841 3,7.108L3,40.892C3,43.159 5.05,45 7.575,45L145.425,45C147.95,45 150,43.159 150,40.892L150,7.108Z" style="fill:white;"/>
        <path d="M150,7.108C150,4.841 147.95,3 145.425,3L7.575,3C5.05,3 3,4.841 3,7.108L3,40.892C3,43.159 5.05,45 7.575,45L145.425,45C147.95,45 150,43.159 150,40.892L150,7.108ZM149.165,7.108L149.165,40.892C149.165,42.745 147.489,44.25 145.425,44.25L7.575,44.25C5.511,44.25 3.835,42.745 3.835,40.892L3.835,7.108C3.835,5.255 5.511,3.75 7.575,3.75L145.425,3.75C147.489,3.75 149.165,5.255 149.165,7.108Z" style="fill:rgb(1,1,1);"/>
    </g>
    <g transform="matrix(1,0,0,1,16.213,-0.54171)">
        <g transform="matrix(2.60679,0,0,2.60679,-88.4499,-32.1656)">
            <g transform="matrix(12,0,0,12,55.8845,27.3801)">
                <path d="M0.694,-0.482L0.561,-0.482C0.558,-0.504 0.551,-0.523 0.54,-0.54C0.53,-0.557 0.518,-0.571 0.502,-0.583C0.487,-0.595 0.47,-0.604 0.451,-0.61C0.432,-0.616 0.411,-0.619 0.388,-0.619C0.349,-0.619 0.314,-0.609 0.283,-0.589C0.253,-0.57 0.229,-0.541 0.212,-0.503C0.194,-0.465 0.186,-0.418 0.186,-0.364C0.186,-0.308 0.194,-0.261 0.212,-0.223C0.229,-0.185 0.253,-0.157 0.284,-0.137C0.314,-0.118 0.349,-0.108 0.388,-0.108C0.41,-0.108 0.43,-0.111 0.449,-0.117C0.468,-0.123 0.486,-0.131 0.501,-0.143C0.516,-0.154 0.529,-0.168 0.54,-0.185C0.55,-0.201 0.557,-0.22 0.561,-0.241L0.694,-0.241C0.689,-0.206 0.679,-0.174 0.662,-0.143C0.646,-0.113 0.624,-0.086 0.598,-0.063C0.571,-0.04 0.54,-0.022 0.505,-0.009C0.469,0.003 0.43,0.01 0.386,0.01C0.322,0.01 0.265,-0.005 0.215,-0.034C0.165,-0.064 0.125,-0.107 0.097,-0.163C0.068,-0.219 0.053,-0.286 0.053,-0.364C0.053,-0.442 0.068,-0.509 0.097,-0.565C0.126,-0.621 0.166,-0.663 0.216,-0.693C0.266,-0.722 0.323,-0.737 0.386,-0.737C0.427,-0.737 0.464,-0.732 0.499,-0.72C0.534,-0.709 0.565,-0.692 0.592,-0.67C0.62,-0.648 0.642,-0.622 0.66,-0.59C0.677,-0.558 0.689,-0.522 0.694,-0.482Z" style="fill-rule:nonzero;"/>
            </g>
            <g transform="matrix(12,0,0,12,64.6118,27.3801)">
                <path d="M0.195,-0.32L0.195,-0L0.066,-0L0.066,-0.727L0.192,-0.727L0.192,-0.453L0.198,-0.453C0.211,-0.484 0.231,-0.508 0.258,-0.526C0.285,-0.544 0.319,-0.553 0.36,-0.553C0.398,-0.553 0.431,-0.545 0.46,-0.529C0.488,-0.513 0.51,-0.49 0.525,-0.459C0.541,-0.429 0.548,-0.391 0.548,-0.347L0.548,-0L0.42,-0L0.42,-0.327C0.42,-0.364 0.41,-0.393 0.392,-0.413C0.373,-0.434 0.346,-0.444 0.313,-0.444C0.29,-0.444 0.269,-0.439 0.252,-0.429C0.234,-0.419 0.22,-0.405 0.21,-0.387C0.2,-0.368 0.195,-0.346 0.195,-0.32Z" style="fill-rule:nonzero;"/>
            </g>
            <g transform="matrix(12,0,0,12,71.7027,27.3801)">
                <path d="M0.223,0.011C0.188,0.011 0.157,0.005 0.13,-0.008C0.102,-0.02 0.08,-0.038 0.064,-0.063C0.048,-0.087 0.04,-0.117 0.04,-0.153C0.04,-0.184 0.046,-0.209 0.058,-0.229C0.069,-0.25 0.084,-0.266 0.104,-0.278C0.124,-0.29 0.146,-0.299 0.171,-0.305C0.195,-0.311 0.221,-0.316 0.248,-0.319C0.279,-0.322 0.305,-0.325 0.325,-0.328C0.345,-0.331 0.36,-0.335 0.369,-0.341C0.378,-0.347 0.382,-0.356 0.382,-0.368L0.382,-0.37C0.382,-0.397 0.375,-0.417 0.359,-0.432C0.343,-0.447 0.32,-0.454 0.29,-0.454C0.259,-0.454 0.234,-0.447 0.215,-0.434C0.197,-0.42 0.185,-0.404 0.178,-0.385L0.058,-0.402C0.068,-0.435 0.083,-0.463 0.105,-0.485C0.127,-0.508 0.154,-0.524 0.185,-0.536C0.217,-0.547 0.251,-0.553 0.289,-0.553C0.316,-0.553 0.342,-0.549 0.368,-0.543C0.394,-0.537 0.418,-0.527 0.439,-0.513C0.461,-0.499 0.478,-0.48 0.491,-0.456C0.504,-0.431 0.511,-0.401 0.511,-0.365L0.511,-0L0.387,-0L0.387,-0.075L0.383,-0.075C0.375,-0.06 0.364,-0.046 0.35,-0.032C0.336,-0.019 0.319,-0.009 0.297,-0.001C0.276,0.007 0.251,0.011 0.223,0.011ZM0.256,-0.083C0.282,-0.083 0.305,-0.089 0.324,-0.099C0.342,-0.109 0.357,-0.123 0.367,-0.14C0.378,-0.157 0.383,-0.176 0.383,-0.196L0.383,-0.26C0.379,-0.257 0.372,-0.254 0.362,-0.251C0.353,-0.248 0.342,-0.245 0.33,-0.243C0.318,-0.241 0.307,-0.239 0.295,-0.238C0.283,-0.236 0.273,-0.234 0.265,-0.233C0.246,-0.231 0.229,-0.226 0.213,-0.221C0.198,-0.215 0.186,-0.206 0.178,-0.196C0.169,-0.185 0.164,-0.172 0.164,-0.155C0.164,-0.132 0.173,-0.114 0.19,-0.102C0.208,-0.089 0.23,-0.083 0.256,-0.083Z" style="fill-rule:nonzero;"/>
            </g>
            <g transform="matrix(12,0,0,12,78.4697,27.3801)">
                <path d="M0.338,-0.545L0.338,-0.446L0.025,-0.446L0.025,-0.545L0.338,-0.545ZM0.102,-0.676L0.231,-0.676L0.231,-0.164C0.231,-0.147 0.233,-0.134 0.239,-0.124C0.244,-0.115 0.251,-0.109 0.26,-0.106C0.269,-0.103 0.278,-0.101 0.289,-0.101C0.297,-0.101 0.305,-0.101 0.311,-0.103C0.318,-0.104 0.323,-0.105 0.327,-0.106L0.348,-0.005C0.342,-0.003 0.332,-0 0.319,0.002C0.306,0.005 0.291,0.007 0.273,0.007C0.241,0.008 0.212,0.003 0.186,-0.007C0.16,-0.018 0.14,-0.035 0.124,-0.058C0.109,-0.08 0.102,-0.109 0.102,-0.143L0.102,-0.676Z" style="fill-rule:nonzero;"/>
            </g>
        </g>
        <g transform="matrix(0.186021,0,0,0.186021,32.4686,28.5417)">
            <g transform="matrix(1,0,0,1,-122.5,-120)">
                <path d="M104.4,103.9C98.7,103.9 94.2,108.9 94.2,115C94.2,121.1 98.8,126.1 104.4,126.1C110.1,126.1 114.6,121.1 114.6,115C114.7,108.9 110.1,103.9 104.4,103.9ZM140.9,103.9C135.2,103.9 130.7,108.9 130.7,115C130.7,121.1 135.3,126.1 140.9,126.1C146.6,126.1 151.1,121.1 151.1,115C151.1,108.9 146.6,103.9 140.9,103.9Z" style="fill:rgb(114,137,218);fill-rule:nonzero;"/>
                <path d="M189.5,20L55.5,20C44.2,20 35,29.2 35,40.6L35,175.8C35,187.2 44.2,196.4 55.5,196.4L168.9,196.4L163.6,177.9L176.4,189.8L188.5,201L210,220L210,40.6C210,29.2 200.8,20 189.5,20ZM150.9,150.6C150.9,150.6 147.3,146.3 144.3,142.5C157.4,138.8 162.4,130.6 162.4,130.6C158.3,133.3 154.4,135.2 150.9,136.5C145.9,138.6 141.1,140 136.4,140.8C126.8,142.6 118,142.1 110.5,140.7C104.8,139.6 99.9,138 95.8,136.4C93.5,135.5 91,134.4 88.5,133C88.2,132.8 87.9,132.7 87.6,132.5C87.4,132.4 87.3,132.3 87.2,132.2C85.4,131.2 84.4,130.5 84.4,130.5C84.4,130.5 89.2,138.5 101.9,142.3C98.9,146.1 95.2,150.6 95.2,150.6C73.1,149.9 64.7,135.4 64.7,135.4C64.7,103.2 79.1,77.1 79.1,77.1C93.5,66.3 107.2,66.6 107.2,66.6L108.2,67.8C90.2,73 81.9,80.9 81.9,80.9C81.9,80.9 84.1,79.7 87.8,78C98.5,73.3 107,72 110.5,71.7C111.1,71.6 111.6,71.5 112.2,71.5C118.3,70.7 125.2,70.5 132.4,71.3C141.9,72.4 152.1,75.2 162.5,80.9C162.5,80.9 154.6,73.4 137.6,68.2L139,66.6C139,66.6 152.7,66.3 167.1,77.1C167.1,77.1 181.5,103.2 181.5,135.4C181.5,135.4 173,149.9 150.9,150.6Z" style="fill:rgb(114,137,218);fill-rule:nonzero;"/>
            </g>
        </g>
    </g>
</svg>
