<?xml version="1.0" encoding="UTF-8" standalone="no"?>
<!DOCTYPE svg PUBLIC "-//W3C//DTD SVG 1.1//EN" "http://www.w3.org/Graphics/SVG/1.1/DTD/svg11.dtd">
<svg width="100%" height="100%" viewBox="0 0 176 56" version="1.1" xmlns="http://www.w3.org/2000/svg" xmlns:xlink="http://www.w3.org/1999/xlink" xml:space="preserve" xmlns:serif="http://www.serif.com/" style="fill-rule:evenodd;clip-rule:evenodd;stroke-linejoin:round;stroke-miterlimit:2;">
    <g transform="matrix(1.19728,0,0,1.33333,-3.59184,-4)">
        <path d="M150,7.108C150,4.841 147.95,3 145.425,3L7.575,3C5.05,3 3,4.841 3,7.108L3,40.892C3,43.159 5.05,45 7.575,45L145.425,45C147.95,45 150,43.159 150,40.892L150,7.108Z" style="fill:white;"/>
        <path d="M150,7.108C150,4.841 147.95,3 145.425,3L7.575,3C5.05,3 3,4.841 3,7.108L3,40.892C3,43.159 5.05,45 7.575,45L145.425,45C147.95,45 150,43.159 150,40.892L150,7.108ZM149.165,7.108L149.165,40.892C149.165,42.745 147.489,44.25 145.425,44.25L7.575,44.25C5.511,44.25 3.835,42.745 3.835,40.892L3.835,7.108C3.835,5.255 5.511,3.75 7.575,3.75L145.425,3.75C147.489,3.75 149.165,5.255 149.165,7.108Z" style="fill:rgb(1,1,1);"/>
    </g>
    <g transform="matrix(1,0,0,1,4.03259,-1.5)">
        <g transform="matrix(2.60679,0,0,2.60679,-88.4499,-32.1656)">
            <g transform="matrix(12,0,0,12,55.8845,27.3801)">
                <path d="M0.072,0L0.072,-0.727L0.538,-0.727L0.538,-0.617L0.203,-0.617L0.203,-0.419L0.506,-0.419L0.506,-0.309L0.203,-0.309L0.203,0L0.072,0Z" style="fill-rule:nonzero;"/>
            </g>
            <g transform="matrix(12,0,0,12,62.447,27.3801)">
                <path d="M0.304,0.011C0.251,0.011 0.205,-0.001 0.165,-0.025C0.126,-0.048 0.096,-0.081 0.075,-0.123C0.053,-0.165 0.043,-0.214 0.043,-0.271C0.043,-0.327 0.053,-0.376 0.075,-0.419C0.096,-0.461 0.126,-0.494 0.165,-0.517C0.205,-0.541 0.251,-0.553 0.304,-0.553C0.357,-0.553 0.403,-0.541 0.442,-0.517C0.482,-0.494 0.512,-0.461 0.533,-0.419C0.555,-0.376 0.565,-0.327 0.565,-0.271C0.565,-0.214 0.555,-0.165 0.533,-0.123C0.512,-0.081 0.482,-0.048 0.442,-0.025C0.403,-0.001 0.357,0.011 0.304,0.011ZM0.305,-0.092C0.334,-0.092 0.358,-0.1 0.377,-0.116C0.397,-0.132 0.411,-0.154 0.421,-0.181C0.43,-0.208 0.435,-0.238 0.435,-0.271C0.435,-0.304 0.43,-0.335 0.421,-0.362C0.411,-0.389 0.397,-0.41 0.377,-0.426C0.358,-0.443 0.334,-0.451 0.305,-0.451C0.275,-0.451 0.251,-0.443 0.231,-0.426C0.211,-0.41 0.197,-0.389 0.187,-0.362C0.178,-0.335 0.173,-0.304 0.173,-0.271C0.173,-0.238 0.178,-0.208 0.187,-0.181C0.197,-0.154 0.211,-0.132 0.231,-0.116C0.251,-0.1 0.275,-0.092 0.305,-0.092Z" style="fill-rule:nonzero;"/>
            </g>
            <g transform="matrix(12,0,0,12,69.6061,27.3801)">
                <rect x="0.066" y="-0.727" width="0.129" height="0.727" style="fill-rule:nonzero;"/>
            </g>
            <g transform="matrix(12,0,0,12,72.4527,27.3801)">
                <rect x="0.066" y="-0.727" width="0.129" height="0.727" style="fill-rule:nonzero;"/>
            </g>
            <g transform="matrix(12,0,0,12,75.2993,27.3801)">
                <path d="M0.304,0.011C0.251,0.011 0.205,-0.001 0.165,-0.025C0.126,-0.048 0.096,-0.081 0.075,-0.123C0.053,-0.165 0.043,-0.214 0.043,-0.271C0.043,-0.327 0.053,-0.376 0.075,-0.419C0.096,-0.461 0.126,-0.494 0.165,-0.517C0.205,-0.541 0.251,-0.553 0.304,-0.553C0.357,-0.553 0.403,-0.541 0.442,-0.517C0.482,-0.494 0.512,-0.461 0.533,-0.419C0.555,-0.376 0.565,-0.327 0.565,-0.271C0.565,-0.214 0.555,-0.165 0.533,-0.123C0.512,-0.081 0.482,-0.048 0.442,-0.025C0.403,-0.001 0.357,0.011 0.304,0.011ZM0.305,-0.092C0.334,-0.092 0.358,-0.1 0.377,-0.116C0.397,-0.132 0.411,-0.154 0.421,-0.181C0.43,-0.208 0.435,-0.238 0.435,-0.271C0.435,-0.304 0.43,-0.335 0.421,-0.362C0.411,-0.389 0.397,-0.41 0.377,-0.426C0.358,-0.443 0.334,-0.451 0.305,-0.451C0.275,-0.451 0.251,-0.443 0.231,-0.426C0.211,-0.41 0.197,-0.389 0.187,-0.362C0.178,-0.335 0.173,-0.304 0.173,-0.271C0.173,-0.238 0.178,-0.208 0.187,-0.181C0.197,-0.154 0.211,-0.132 0.231,-0.116C0.251,-0.1 0.275,-0.092 0.305,-0.092Z" style="fill-rule:nonzero;"/>
            </g>
            <g transform="matrix(12,0,0,12,82.2368,27.3801)">
                <path d="M0.179,0L0.025,-0.545L0.156,-0.545L0.251,-0.162L0.256,-0.162L0.354,-0.545L0.484,-0.545L0.582,-0.164L0.587,-0.164L0.682,-0.545L0.813,-0.545L0.659,0L0.525,0L0.423,-0.369L0.415,-0.369L0.313,0L0.179,0Z" style="fill-rule:nonzero;"/>
            </g>
        </g>
        <g transform="matrix(0.183631,0,0,0.183631,16.5724,13.4583)">
            <path d="M169.446,111.27C166.901,124.363 146.652,138.692 123.396,141.469C111.269,142.916 99.329,144.246 86.597,143.662C65.775,142.708 49.345,138.692 49.345,138.692C49.345,140.719 49.47,142.649 49.72,144.454C52.427,165.003 70.096,166.234 86.833,166.808C103.726,167.386 118.768,162.643 118.768,162.643L119.462,177.915C119.462,177.915 107.646,184.26 86.597,185.427C74.99,186.065 60.578,185.135 43.792,180.692C7.386,171.056 1.125,132.249 0.167,92.873C-0.125,81.182 0.055,70.158 0.055,60.938C0.055,20.674 26.436,8.872 26.436,8.872C39.738,2.763 62.563,0.194 86.292,0L86.875,0C110.604,0.194 133.444,2.763 146.745,8.872C146.745,8.872 173.125,20.674 173.125,60.938C173.125,60.938 173.456,90.645 169.446,111.27" style="fill:rgb(48,136,212);fill-rule:nonzero;"/>
            <path d="M142.008,64.062L142.008,112.815L122.693,112.815L122.693,65.495C122.693,55.52 118.496,50.457 110.101,50.457C100.819,50.457 96.167,56.463 96.167,68.339L96.167,94.24L76.966,94.24L76.966,68.339C76.966,56.463 72.313,50.457 63.031,50.457C54.636,50.457 50.439,55.52 50.439,65.495L50.439,112.815L31.124,112.815L31.124,64.062C31.124,54.098 33.661,46.18 38.757,40.322C44.012,34.464 50.894,31.461 59.437,31.461C69.321,31.461 76.806,35.26 81.755,42.859L86.566,50.924L91.378,42.859C96.326,35.26 103.811,31.461 113.696,31.461C122.238,31.461 129.12,34.464 134.376,40.322C139.471,46.18 142.008,54.098 142.008,64.062" style="fill:white;fill-rule:nonzero;"/>
        </g>
    </g>
</svg>
