<?xml version="1.0" encoding="UTF-8" standalone="no"?>
<!DOCTYPE svg PUBLIC "-//W3C//DTD SVG 1.1//EN" "http://www.w3.org/Graphics/SVG/1.1/DTD/svg11.dtd">
<svg width="100%" height="100%" viewBox="0 0 176 56" version="1.1" xmlns="http://www.w3.org/2000/svg" xmlns:xlink="http://www.w3.org/1999/xlink" xml:space="preserve" xmlns:serif="http://www.serif.com/" style="fill-rule:evenodd;clip-rule:evenodd;stroke-linejoin:round;stroke-miterlimit:2;">
    <g transform="matrix(1.19728,0,0,1.33333,-3.59184,-4)">
        <path d="M150,7.108C150,4.841 147.95,3 145.425,3L7.575,3C5.05,3 3,4.841 3,7.108L3,40.892C3,43.159 5.05,45 7.575,45L145.425,45C147.95,45 150,43.159 150,40.892L150,7.108Z" style="fill:white;"/>
        <path d="M150,7.108C150,4.841 147.95,3 145.425,3L7.575,3C5.05,3 3,4.841 3,7.108L3,40.892C3,43.159 5.05,45 7.575,45L145.425,45C147.95,45 150,43.159 150,40.892L150,7.108ZM149.165,7.108L149.165,40.892C149.165,42.745 147.489,44.25 145.425,44.25L7.575,44.25C5.511,44.25 3.835,42.745 3.835,40.892L3.835,7.108C3.835,5.255 5.511,3.75 7.575,3.75L145.425,3.75C147.489,3.75 149.165,5.255 149.165,7.108Z" style="fill:rgb(1,1,1);"/>
    </g>
    <g transform="matrix(1,0,0,1,16.213,-0.54171)">
        <g transform="matrix(2.60679,0,0,2.60679,-88.4499,-32.1656)">
            <g transform="matrix(12,0,0,12,55.8845,27.3801)">
                <path d="M0.694,-0.482L0.561,-0.482C0.558,-0.504 0.551,-0.523 0.54,-0.54C0.53,-0.557 0.518,-0.571 0.502,-0.583C0.487,-0.595 0.47,-0.604 0.451,-0.61C0.432,-0.616 0.411,-0.619 0.388,-0.619C0.349,-0.619 0.314,-0.609 0.283,-0.589C0.253,-0.57 0.229,-0.541 0.212,-0.503C0.194,-0.465 0.186,-0.418 0.186,-0.364C0.186,-0.308 0.194,-0.261 0.212,-0.223C0.229,-0.185 0.253,-0.157 0.284,-0.137C0.314,-0.118 0.349,-0.108 0.388,-0.108C0.41,-0.108 0.43,-0.111 0.449,-0.117C0.468,-0.123 0.486,-0.131 0.501,-0.143C0.516,-0.154 0.529,-0.168 0.54,-0.185C0.55,-0.201 0.557,-0.22 0.561,-0.241L0.694,-0.241C0.689,-0.206 0.679,-0.174 0.662,-0.143C0.646,-0.113 0.624,-0.086 0.598,-0.063C0.571,-0.04 0.54,-0.022 0.505,-0.009C0.469,0.003 0.43,0.01 0.386,0.01C0.322,0.01 0.265,-0.005 0.215,-0.034C0.165,-0.064 0.125,-0.107 0.097,-0.163C0.068,-0.219 0.053,-0.286 0.053,-0.364C0.053,-0.442 0.068,-0.509 0.097,-0.565C0.126,-0.621 0.166,-0.663 0.216,-0.693C0.266,-0.722 0.323,-0.737 0.386,-0.737C0.427,-0.737 0.464,-0.732 0.499,-0.72C0.534,-0.709 0.565,-0.692 0.592,-0.67C0.62,-0.648 0.642,-0.622 0.66,-0.59C0.677,-0.558 0.689,-0.522 0.694,-0.482Z" style="fill-rule:nonzero;"/>
            </g>
            <g transform="matrix(12,0,0,12,64.6118,27.3801)">
                <path d="M0.195,-0.32L0.195,0L0.066,0L0.066,-0.727L0.192,-0.727L0.192,-0.453L0.198,-0.453C0.211,-0.484 0.231,-0.508 0.258,-0.526C0.285,-0.544 0.319,-0.553 0.36,-0.553C0.398,-0.553 0.431,-0.545 0.46,-0.529C0.488,-0.513 0.51,-0.49 0.525,-0.459C0.541,-0.429 0.548,-0.391 0.548,-0.347L0.548,0L0.42,0L0.42,-0.327C0.42,-0.364 0.41,-0.393 0.392,-0.413C0.373,-0.434 0.346,-0.444 0.313,-0.444C0.29,-0.444 0.269,-0.439 0.252,-0.429C0.234,-0.419 0.22,-0.405 0.21,-0.387C0.2,-0.368 0.195,-0.346 0.195,-0.32Z" style="fill-rule:nonzero;"/>
            </g>
            <g transform="matrix(12,0,0,12,71.7027,27.3801)">
                <path d="M0.223,0.011C0.188,0.011 0.157,0.005 0.13,-0.008C0.102,-0.02 0.08,-0.038 0.064,-0.063C0.048,-0.087 0.04,-0.117 0.04,-0.153C0.04,-0.184 0.046,-0.209 0.058,-0.229C0.069,-0.25 0.084,-0.266 0.104,-0.278C0.124,-0.29 0.146,-0.299 0.171,-0.305C0.195,-0.311 0.221,-0.316 0.248,-0.319C0.279,-0.322 0.305,-0.325 0.325,-0.328C0.345,-0.331 0.36,-0.335 0.369,-0.341C0.378,-0.347 0.382,-0.356 0.382,-0.368L0.382,-0.37C0.382,-0.397 0.375,-0.417 0.359,-0.432C0.343,-0.447 0.32,-0.454 0.29,-0.454C0.259,-0.454 0.234,-0.447 0.215,-0.434C0.197,-0.42 0.185,-0.404 0.178,-0.385L0.058,-0.402C0.068,-0.435 0.083,-0.463 0.105,-0.485C0.127,-0.508 0.154,-0.524 0.185,-0.536C0.217,-0.547 0.251,-0.553 0.289,-0.553C0.316,-0.553 0.342,-0.549 0.368,-0.543C0.394,-0.537 0.418,-0.527 0.439,-0.513C0.461,-0.499 0.478,-0.48 0.491,-0.456C0.504,-0.431 0.511,-0.401 0.511,-0.365L0.511,0L0.387,0L0.387,-0.075L0.383,-0.075C0.375,-0.06 0.364,-0.046 0.35,-0.032C0.336,-0.019 0.319,-0.009 0.297,-0.001C0.276,0.007 0.251,0.011 0.223,0.011ZM0.256,-0.083C0.282,-0.083 0.305,-0.089 0.324,-0.099C0.342,-0.109 0.357,-0.123 0.367,-0.14C0.378,-0.157 0.383,-0.176 0.383,-0.196L0.383,-0.26C0.379,-0.257 0.372,-0.254 0.362,-0.251C0.353,-0.248 0.342,-0.245 0.33,-0.243C0.318,-0.241 0.307,-0.239 0.295,-0.238C0.283,-0.236 0.273,-0.234 0.265,-0.233C0.246,-0.231 0.229,-0.226 0.213,-0.221C0.198,-0.215 0.186,-0.206 0.178,-0.196C0.169,-0.185 0.164,-0.172 0.164,-0.155C0.164,-0.132 0.173,-0.114 0.19,-0.102C0.208,-0.089 0.23,-0.083 0.256,-0.083Z" style="fill-rule:nonzero;"/>
            </g>
            <g transform="matrix(12,0,0,12,78.4697,27.3801)">
                <path d="M0.338,-0.545L0.338,-0.446L0.025,-0.446L0.025,-0.545L0.338,-0.545ZM0.102,-0.676L0.231,-0.676L0.231,-0.164C0.231,-0.147 0.233,-0.134 0.239,-0.124C0.244,-0.115 0.251,-0.109 0.26,-0.106C0.269,-0.103 0.278,-0.101 0.289,-0.101C0.297,-0.101 0.305,-0.101 0.311,-0.103C0.318,-0.104 0.323,-0.105 0.327,-0.106L0.348,-0.005C0.342,-0.003 0.332,0 0.319,0.002C0.306,0.005 0.291,0.007 0.273,0.007C0.241,0.008 0.212,0.003 0.186,-0.007C0.16,-0.018 0.14,-0.035 0.124,-0.058C0.109,-0.08 0.102,-0.109 0.102,-0.143L0.102,-0.676Z" style="fill-rule:nonzero;"/>
            </g>
        </g>
        <g transform="matrix(0.791667,0,0,0.791667,19.9706,2.02088)">
            <g transform="matrix(1,0,0,1,-16.213,1.5)">
                <path d="M25.28,10.88C25.28,9.289 26.569,8 28.16,8C38.764,8 47.36,16.596 47.36,27.2C47.36,28.791 46.071,30.08 44.48,30.08C42.889,30.08 41.6,28.791 41.6,27.2C41.6,19.777 35.583,13.76 28.16,13.76C26.569,13.76 25.28,12.471 25.28,10.88Z" style="fill:rgb(13,189,139);"/>
            </g>
            <g transform="matrix(1,0,0,1,-16.213,1.5)">
                <path d="M38.72,53.12C38.72,54.711 37.431,56 35.84,56C25.236,56 16.64,47.404 16.64,36.8C16.64,35.209 17.929,33.92 19.52,33.92C21.11,33.92 22.4,35.209 22.4,36.8C22.4,44.223 28.417,50.24 35.84,50.24C37.431,50.24 38.72,51.529 38.72,53.12Z" style="fill:rgb(13,189,139);"/>
            </g>
            <g transform="matrix(1,0,0,1,-16.213,1.5)">
                <path d="M10.88,38.72C9.289,38.72 8,37.431 8,35.84C8,25.236 16.596,16.64 27.2,16.64C28.791,16.64 30.08,17.929 30.08,19.52C30.08,21.11 28.791,22.4 27.2,22.4C19.777,22.4 13.76,28.417 13.76,35.84C13.76,37.431 12.471,38.72 10.88,38.72Z" style="fill:rgb(13,189,139);"/>
            </g>
            <g transform="matrix(1,0,0,1,-16.213,1.5)">
                <path d="M53.12,25.28C54.711,25.28 56,26.569 56,28.16C56,38.764 47.404,47.36 36.8,47.36C35.209,47.36 33.92,46.071 33.92,44.48C33.92,42.89 35.209,41.6 36.8,41.6C44.223,41.6 50.24,35.583 50.24,28.16C50.24,26.569 51.529,25.28 53.12,25.28Z" style="fill:rgb(13,189,139);"/>
            </g>
        </g>
    </g>
</svg>
