<?xml version="1.0" encoding="UTF-8" standalone="no"?>
<!DOCTYPE svg PUBLIC "-//W3C//DTD SVG 1.1//EN" "http://www.w3.org/Graphics/SVG/1.1/DTD/svg11.dtd">
<svg width="100%" height="100%" viewBox="0 0 176 56" version="1.1" xmlns="http://www.w3.org/2000/svg" xmlns:xlink="http://www.w3.org/1999/xlink" xml:space="preserve" xmlns:serif="http://www.serif.com/" style="fill-rule:evenodd;clip-rule:evenodd;stroke-linecap:round;stroke-linejoin:round;">
    <g transform="matrix(1.19728,0,0,1.33333,-3.59184,-4)">
        <path d="M150,7.108C150,4.841 147.95,3 145.425,3L7.575,3C5.05,3 3,4.841 3,7.108L3,40.892C3,43.159 5.05,45 7.575,45L145.425,45C147.95,45 150,43.159 150,40.892L150,7.108Z" style="fill:white;"/>
        <path d="M150,7.108C150,4.841 147.95,3 145.425,3L7.575,3C5.05,3 3,4.841 3,7.108L3,40.892C3,43.159 5.05,45 7.575,45L145.425,45C147.95,45 150,43.159 150,40.892L150,7.108ZM149.165,7.108L149.165,40.892C149.165,42.745 147.489,44.25 145.425,44.25L7.575,44.25C5.511,44.25 3.835,42.745 3.835,40.892L3.835,7.108C3.835,5.255 5.511,3.75 7.575,3.75L145.425,3.75C147.489,3.75 149.165,5.255 149.165,7.108Z" style="fill:rgb(1,1,1);"/>
    </g>
    <g transform="matrix(1,0,0,1,21.0608,-1.4403)">
        <g transform="matrix(2.60679,0,0,2.60679,-88.4499,-32.1656)">
            <g transform="matrix(12,0,0,12,55.8845,27.3801)">
                <path d="M0.072,0L0.072,-0.727L0.344,-0.727C0.4,-0.727 0.447,-0.717 0.485,-0.696C0.523,-0.675 0.552,-0.647 0.572,-0.61C0.591,-0.574 0.601,-0.533 0.601,-0.487C0.601,-0.44 0.591,-0.398 0.571,-0.362C0.552,-0.326 0.523,-0.298 0.484,-0.277C0.446,-0.256 0.399,-0.246 0.343,-0.246L0.162,-0.246L0.162,-0.354L0.325,-0.354C0.358,-0.354 0.384,-0.36 0.405,-0.371C0.426,-0.382 0.441,-0.398 0.452,-0.418C0.462,-0.438 0.467,-0.461 0.467,-0.487C0.467,-0.512 0.462,-0.535 0.452,-0.555C0.441,-0.574 0.426,-0.59 0.405,-0.601C0.384,-0.612 0.357,-0.617 0.324,-0.617L0.203,-0.617L0.203,0L0.072,0Z" style="fill-rule:nonzero;"/>
            </g>
            <g transform="matrix(12,0,0,12,63.5038,27.3801)">
                <rect x="0.066" y="-0.727" width="0.129" height="0.727" style="fill-rule:nonzero;"/>
            </g>
            <g transform="matrix(12,0,0,12,66.3504,27.3801)">
                <path d="M0.223,0.011C0.188,0.011 0.157,0.005 0.13,-0.008C0.102,-0.02 0.08,-0.038 0.064,-0.063C0.048,-0.087 0.04,-0.117 0.04,-0.153C0.04,-0.184 0.046,-0.209 0.058,-0.229C0.069,-0.25 0.084,-0.266 0.104,-0.278C0.124,-0.29 0.146,-0.299 0.171,-0.305C0.195,-0.311 0.221,-0.316 0.248,-0.319C0.279,-0.322 0.305,-0.325 0.325,-0.328C0.345,-0.331 0.36,-0.335 0.369,-0.341C0.378,-0.347 0.382,-0.356 0.382,-0.368L0.382,-0.37C0.382,-0.397 0.375,-0.417 0.359,-0.432C0.343,-0.447 0.32,-0.454 0.29,-0.454C0.259,-0.454 0.234,-0.447 0.215,-0.434C0.197,-0.42 0.185,-0.404 0.178,-0.385L0.058,-0.402C0.068,-0.435 0.083,-0.463 0.105,-0.485C0.127,-0.508 0.154,-0.524 0.185,-0.536C0.217,-0.547 0.251,-0.553 0.289,-0.553C0.316,-0.553 0.342,-0.549 0.368,-0.543C0.394,-0.537 0.418,-0.527 0.439,-0.513C0.461,-0.499 0.478,-0.48 0.491,-0.456C0.504,-0.431 0.511,-0.401 0.511,-0.365L0.511,0L0.387,0L0.387,-0.075L0.383,-0.075C0.375,-0.06 0.364,-0.046 0.35,-0.032C0.336,-0.019 0.319,-0.009 0.297,-0.001C0.276,0.007 0.251,0.011 0.223,0.011ZM0.256,-0.083C0.282,-0.083 0.305,-0.089 0.324,-0.099C0.342,-0.109 0.357,-0.123 0.367,-0.14C0.378,-0.157 0.383,-0.176 0.383,-0.196L0.383,-0.26C0.379,-0.257 0.372,-0.254 0.362,-0.251C0.353,-0.248 0.342,-0.245 0.33,-0.243C0.318,-0.241 0.307,-0.239 0.295,-0.238C0.283,-0.236 0.273,-0.234 0.265,-0.233C0.246,-0.231 0.229,-0.226 0.213,-0.221C0.198,-0.215 0.186,-0.206 0.178,-0.196C0.169,-0.185 0.164,-0.172 0.164,-0.155C0.164,-0.132 0.173,-0.114 0.19,-0.102C0.208,-0.089 0.23,-0.083 0.256,-0.083Z" style="fill-rule:nonzero;"/>
            </g>
            <g transform="matrix(12,0,0,12,72.8788,27.3801)">
                <path d="M0.146,0.205C0.128,0.205 0.112,0.203 0.097,0.2C0.083,0.198 0.071,0.195 0.062,0.191L0.092,0.091C0.111,0.096 0.127,0.099 0.142,0.099C0.157,0.098 0.17,0.094 0.181,0.085C0.192,0.076 0.202,0.061 0.21,0.041L0.221,0.011L0.023,-0.545L0.159,-0.545L0.285,-0.134L0.29,-0.134L0.417,-0.545L0.554,-0.545L0.335,0.066C0.325,0.095 0.311,0.12 0.294,0.14C0.278,0.161 0.257,0.177 0.233,0.188C0.209,0.199 0.18,0.205 0.146,0.205Z" style="fill-rule:nonzero;"/>
            </g>
        </g>
        <g transform="matrix(0.102241,0,0,0.102241,6.29478,2.3679)">
            <g>
                <g transform="matrix(21.3333,0,0,21.3333,0,0)">
                    <path d="M4,17L10,11" style="fill:none;fill-rule:nonzero;stroke:url(#_Linear1);stroke-width:2px;"/>
                </g>
                <g>
                    <g transform="matrix(1.00783,-1.00671,1.00638,1.0075,-318.416,230.431)">
                        <path d="M277,251L247,251L247,281C266.815,283.338 278.751,275.772 277,251Z" style="fill:url(#_Linear2);"/>
                    </g>
                    <g transform="matrix(21.3333,0,0,21.3333,0,0)">
                        <path d="M10,11L4,5" style="fill:none;fill-rule:nonzero;stroke:url(#_Linear3);stroke-width:2px;"/>
                    </g>
                </g>
            </g>
            <g transform="matrix(21.3333,0,0,21.3333,0,0)">
                <path d="M12,19L20,19" style="fill:none;fill-rule:nonzero;stroke:url(#_Linear4);stroke-width:2px;"/>
            </g>
        </g>
    </g>
    <defs>
        <linearGradient id="_Linear1" x1="0" y1="0" x2="1" y2="0" gradientUnits="userSpaceOnUse" gradientTransform="matrix(-6,6,-12,-12,10,11)"><stop offset="0" style="stop-color:rgb(112,108,203);stop-opacity:1"/><stop offset="1" style="stop-color:rgb(56,139,213);stop-opacity:1"/></linearGradient>
        <linearGradient id="_Linear2" x1="0" y1="0" x2="1" y2="0" gradientUnits="userSpaceOnUse" gradientTransform="matrix(1.00935,29.7927,-29.7729,1.00935,261.661,251.104)"><stop offset="0" style="stop-color:rgb(117,106,179);stop-opacity:1"/><stop offset="1" style="stop-color:rgb(109,109,181);stop-opacity:1"/></linearGradient>
        <linearGradient id="_Linear3" x1="0" y1="0" x2="1" y2="0" gradientUnits="userSpaceOnUse" gradientTransform="matrix(6,6,-12,12,4,5)"><stop offset="0" style="stop-color:rgb(189,80,166);stop-opacity:1"/><stop offset="1" style="stop-color:rgb(109,109,181);stop-opacity:1"/></linearGradient>
        <linearGradient id="_Linear4" x1="0" y1="0" x2="1" y2="0" gradientUnits="userSpaceOnUse" gradientTransform="matrix(8,0,-0,8,12,19)"><stop offset="0" style="stop-color:rgb(221,54,142);stop-opacity:1"/><stop offset="1" style="stop-color:rgb(224,70,152);stop-opacity:1"/></linearGradient>
    </defs>
</svg>
